<?xml version="1.0" standalone="no"?>
<!DOCTYPE svg PUBLIC "-//W3C//DTD SVG 20010904//EN"
 "http://www.w3.org/TR/2001/REC-SVG-20010904/DTD/svg10.dtd">
<svg version="1.0" xmlns="http://www.w3.org/2000/svg"
 width="260.000000pt" height="260.000000pt" viewBox="0 0 260.000000 260.000000"
 preserveAspectRatio="xMidYMid meet">
<metadata>
Created by potrace 1.14, written by Peter Selinger 2001-2017
</metadata>
<g transform="translate(0.000000,260.000000) scale(0.100000,-0.100000)"
fill="#000000" stroke="none">
<path d="M1971 1704 c-221 -59 -349 -263 -307 -488 39 -202 206 -335 431 -341
71 -1 188 26 263 61 l72 35 0 169 0 170 -85 0 -85 0 -1 -32 c0 -18 -1 -72 0
-120 l0 -86 -41 -16 c-60 -24 -155 -22 -217 4 -102 44 -157 140 -149 257 10
143 96 228 239 240 71 6 125 -9 190 -52 l52 -35 57 55 58 54 -40 37 c-101 91
-287 128 -437 88z"/>
<path d="M149 1702 c-4 -34 -3 -796 2 -803 3 -5 128 -8 300 -7 l294 3 1 65 c0
36 -1 70 -3 75 -2 7 -76 10 -199 10 -152 0 -198 3 -201 13 -3 7 -6 155 -7 330
l-1 317 -92 2 c-51 0 -93 -2 -94 -5z"/>
<path d="M859 1692 c-3 -61 -4 -779 -1 -789 3 -9 31 -13 97 -13 l93 0 0 106
c1 58 3 109 7 112 3 3 58 7 123 8 128 2 186 13 248 49 84 49 130 124 137 222
7 105 -29 191 -107 249 -77 58 -117 66 -368 70 -212 4 -228 3 -229 -14z m439
-160 c19 -9 44 -28 54 -42 24 -33 26 -106 4 -148 -27 -51 -66 -66 -193 -70
l-113 -4 0 26 c-1 14 -1 73 -1 131 0 58 0 109 1 114 1 23 196 18 248 -7z"/>
</g>
</svg>
